<svg width="1658" height="339" viewBox="0 0 1658 339" fill="none" xmlns="http://www.w3.org/2000/svg">
<path d="M8.1 37.9C22.3 36.7 33.5 32.9 41.7 26.5C50.1 19.9 56.3 11.1 60.3 0.0999823H63.3V186.4C63.3 193 63.6 197.8 64.2 200.8C65 203.8 66.2 206 67.8 207.4C69.4 208.6 72 209.8 75.6 211V214H17.1V211C20.9 210 23.6 208.8 25.2 207.4C26.8 206 27.9 203.8 28.5 200.8C29.1 197.8 29.4 193 29.4 186.4V66.4C29.4 58.4 27.9 52.7 24.9 49.3C21.9 45.7 16.3 43.9 8.1 43.9V37.9ZM148.631 217.9C129.831 217.9 114.531 209.2 102.731 191.8C90.9313 174.4 85.0313 146.8 85.0313 109C85.0313 71.2 90.9313 43.6 102.731 26.2C114.531 8.79998 129.831 0.0999823 148.631 0.0999823C167.631 0.0999823 182.931 8.79998 194.531 26.2C206.331 43.6 212.231 71.2 212.231 109C212.231 147 206.331 174.7 194.531 192.1C182.931 209.3 167.631 217.9 148.631 217.9ZM148.631 211.9C154.831 211.9 159.631 208.7 163.031 202.3C166.431 195.9 168.831 185.4 170.231 170.8C171.631 156.2 172.331 135.6 172.331 109C172.331 82.4 171.631 61.8 170.231 47.2C168.831 32.6 166.431 22.1 163.031 15.7C159.631 9.29999 154.831 6.09999 148.631 6.09999C142.431 6.09999 137.631 9.29999 134.231 15.7C130.831 22.1 128.431 32.7 127.031 47.5C125.631 62.1 124.931 82.6 124.931 109C124.931 135.8 125.531 156.5 126.731 171.1C128.131 185.5 130.531 195.9 133.931 202.3C137.331 208.7 142.231 211.9 148.631 211.9ZM278.644 81.4C279.844 81.2 281.544 81.1 283.744 81.1C293.344 81.1 302.044 83.7 309.844 88.9C317.844 93.9 324.044 101.2 328.444 110.8C333.044 120.2 335.344 131.4 335.344 144.4C335.344 162 332.044 176.3 325.444 187.3C319.044 198.1 310.844 205.9 300.844 210.7C290.844 215.5 280.144 217.9 268.744 217.9C262.344 217.9 255.644 217.2 248.644 215.8C240.644 214.6 234.044 214 228.844 214L221.344 142.6H227.344C232.944 169 238.944 187.2 245.344 197.2C251.744 207 259.244 211.9 267.844 211.9C276.844 211.9 283.644 206 288.244 194.2C293.044 182.4 295.444 165.6 295.444 143.8C295.444 128.2 293.344 115.5 289.144 105.7C284.944 95.9 278.744 91 270.544 91C266.144 91 262.144 92.1 258.544 94.3C254.944 96.5 250.544 100.1 245.344 105.1L241.444 100.3C256.044 84.5 266.544 71.2 272.944 60.4C279.344 49.6 282.544 38.3 282.544 26.5C282.544 12.9 278.144 6.09999 269.344 6.09999C261.944 6.09999 255.144 11 248.944 20.8C242.944 30.4 237.044 47.8 231.244 73H225.244L232.744 3.99999C239.344 3.99999 246.444 3.29999 254.044 1.89999C262.844 0.699986 269.944 0.0999823 275.344 0.0999823C287.544 0.0999823 298.044 2.99999 306.844 8.8C315.844 14.4 320.344 22.9 320.344 34.3C320.344 54.3 306.444 70 278.644 81.4ZM347.25 142V136H424.35V142H347.25ZM442.465 142.6C446.465 161 450.365 175.2 454.165 185.2C457.965 195.2 461.865 202.2 465.865 206.2C469.865 210 474.565 211.9 479.965 211.9C489.165 211.9 496.065 206.1 500.665 194.5C505.265 182.9 507.565 162.5 507.565 133.3C507.565 110.7 505.465 94 501.265 83.2C497.265 72.4 491.165 67 482.965 67C476.965 67 471.065 69.8 465.265 75.4C459.665 80.8 453.465 89.6 446.665 101.8H440.665L453.865 3.99999H535.165V31.9H455.965L450.565 73C452.765 73 456.365 71.6 461.365 68.8C466.765 66 471.565 63.9 475.765 62.5C479.965 60.9 484.965 60.1 490.765 60.1C500.765 60.1 510.065 63 518.665 68.8C527.465 74.4 534.465 82.8 539.665 94C544.865 105.2 547.465 118.5 547.465 133.9C547.465 153.7 544.165 169.9 537.565 182.5C530.965 195.1 522.565 204.2 512.365 209.8C502.365 215.2 491.965 217.9 481.165 217.9C476.965 217.9 471.065 217.3 463.465 216.1C456.865 214.7 450.365 214 443.965 214L436.465 142.6H442.465ZM550.268 37.9C564.468 36.7 575.668 32.9 583.868 26.5C592.268 19.9 598.468 11.1 602.468 0.0999823H605.468V186.4C605.468 193 605.768 197.8 606.368 200.8C607.168 203.8 608.368 206 609.968 207.4C611.568 208.6 614.168 209.8 617.768 211V214H559.268V211C563.068 210 565.768 208.8 567.368 207.4C568.968 206 570.068 203.8 570.668 200.8C571.268 197.8 571.568 193 571.568 186.4V66.4C571.568 58.4 570.068 52.7 567.068 49.3C564.068 45.7 558.468 43.9 550.268 43.9V37.9ZM799.411 75.4H793.411C789.611 55.8 786.011 41.4 782.611 32.2C779.411 23 775.811 17 771.811 14.2C768.011 11.4 762.711 10 755.911 10H749.011V186.4C749.011 193 749.311 197.8 749.911 200.8C750.511 203.8 751.611 206 753.211 207.4C754.811 208.8 757.511 210 761.311 211V214H702.811V211C706.611 210 709.311 208.8 710.911 207.4C712.511 206 713.611 203.8 714.211 200.8C714.811 197.8 715.111 193 715.111 186.4V10H707.911C701.111 10 695.711 11.4 691.711 14.2C687.911 17 684.311 23 680.911 32.2C677.711 41.4 674.311 55.8 670.711 75.4H664.711L672.211 3.99999H791.611L799.411 75.4ZM828.185 40C822.385 40 817.585 38.2 813.785 34.6C809.985 30.8 808.085 26.1 808.085 20.5C808.085 14.9 809.985 10.3 813.785 6.69999C817.585 2.89999 822.385 0.999989 828.185 0.999989C833.785 0.999989 838.485 2.89999 842.285 6.69999C846.085 10.3 847.985 14.9 847.985 20.5C847.985 26.1 846.085 30.8 842.285 34.6C838.485 38.2 833.785 40 828.185 40ZM812.585 97.6C812.585 91 812.285 86.2 811.685 83.2C811.085 80.2 809.985 78 808.385 76.6C806.785 75.2 804.085 74 800.285 73V70H816.785C822.785 70 827.785 69.4 831.785 68.2C835.785 66.8 839.685 64.1 843.485 60.1H846.485V186.4C846.485 193 846.785 197.8 847.385 200.8C847.985 203.8 849.085 206 850.685 207.4C852.285 208.8 854.985 210 858.785 211V214H800.285V211C804.085 210 806.785 208.8 808.385 207.4C809.985 206 811.085 203.8 811.685 200.8C812.285 197.8 812.585 193 812.585 186.4V97.6ZM1049.98 186.4C1049.98 193 1050.28 197.8 1050.88 200.8C1051.48 203.8 1052.58 206 1054.18 207.4C1055.78 208.8 1058.48 210 1062.28 211V214H1003.78V211C1007.58 210 1010.28 208.8 1011.88 207.4C1013.48 206 1014.58 203.8 1015.18 200.8C1015.78 197.8 1016.08 193 1016.08 186.4V104.2C1016.08 92.8 1015.28 84.9 1013.68 80.5C1012.28 75.9 1009.58 73.6 1005.58 73.6C1001.78 73.6 997.984 75.3 994.184 78.7C990.584 82.1 986.084 88 980.684 96.4C980.884 97.8 980.984 100.1 980.984 103.3V186.4C980.984 193 981.284 197.8 981.884 200.8C982.484 203.8 983.584 206 985.184 207.4C986.784 208.8 989.484 210 993.284 211V214H934.784V211C938.584 210 941.284 208.8 942.884 207.4C944.484 206 945.584 203.8 946.184 200.8C946.784 197.8 947.084 193 947.084 186.4V104.2C947.084 92.8 946.284 84.9 944.684 80.5C943.284 75.9 940.584 73.6 936.584 73.6C932.784 73.6 928.884 75.4 924.884 79C921.084 82.6 916.584 88.7 911.384 97.3V186.4C911.384 193 911.684 197.8 912.284 200.8C912.884 203.8 913.984 206 915.584 207.4C917.184 208.8 919.884 210 923.684 211V214H865.184V211C868.984 210 871.684 208.8 873.284 207.4C874.884 206 875.984 203.8 876.584 200.8C877.184 197.8 877.484 193 877.484 186.4V97.6C877.484 91 877.184 86.2 876.584 83.2C875.984 80.2 874.884 78 873.284 76.6C871.684 75.2 868.984 74 865.184 73V70H881.684C887.684 70 892.684 69.4 896.684 68.2C900.684 66.8 904.584 64.1 908.384 60.1H911.384V88.3C916.584 79.5 922.084 72.6 927.884 67.6C933.884 62.6 940.984 60.1 949.184 60.1C957.384 60.1 964.084 62.5 969.284 67.3C974.484 72.1 977.984 79.2 979.784 88.6C985.584 79.4 991.484 72.4 997.484 67.6C1003.48 62.6 1010.38 60.1 1018.18 60.1C1028.38 60.1 1036.18 63.8 1041.58 71.2C1047.18 78.4 1049.98 89.1 1049.98 103.3V186.4ZM1173.81 159.4C1169.01 180.6 1162.41 195.7 1154.01 204.7C1145.81 213.5 1135.31 217.9 1122.51 217.9C1104.51 217.9 1090.41 211.2 1080.21 197.8C1070.21 184.4 1065.21 165.6 1065.21 141.4C1065.21 125 1068.01 110.7 1073.61 98.5C1079.21 86.1 1086.61 76.6 1095.81 70C1105.01 63.4 1115.01 60.1 1125.81 60.1C1139.81 60.1 1150.51 65.1 1157.91 75.1C1165.51 84.9 1169.31 100.1 1169.31 120.7H1105.11V126.4C1105.11 177.4 1115.11 202.9 1135.11 202.9C1149.71 202.9 1160.71 188 1168.11 158.2L1173.81 159.4ZM1124.61 66.1C1118.21 66.1 1113.51 69.8 1110.51 77.2C1107.51 84.4 1105.71 96.9 1105.11 114.7H1139.31C1139.31 96.5 1138.11 83.9 1135.71 76.9C1133.51 69.7 1129.81 66.1 1124.61 66.1ZM1181.08 91.9C1181.08 81.1 1184.88 73.1 1192.48 67.9C1200.28 62.7 1210.28 60.1 1222.48 60.1C1226.68 60.1 1230.78 60.4 1234.78 61C1238.78 61.6 1241.28 62 1242.28 62.2C1249.48 63.4 1255.08 64 1259.08 64L1266.58 115.9H1260.58C1255.98 96.3 1250.88 83.1 1245.28 76.3C1239.88 69.5 1233.48 66.1 1226.08 66.1C1221.48 66.1 1217.98 67.2 1215.58 69.4C1213.18 71.6 1211.98 74.6 1211.98 78.4C1211.98 89 1221.78 104.6 1241.38 125.2C1251.38 137 1258.78 147 1263.58 155.2C1268.38 163.2 1270.78 172.3 1270.78 182.5C1270.78 206.1 1255.88 217.9 1226.08 217.9C1220.88 217.9 1212.68 217.2 1201.48 215.8C1193.88 214.6 1188.48 214 1185.28 214L1178.38 157H1184.38C1188.58 172.2 1192.88 183.8 1197.28 191.8C1201.68 199.8 1205.98 205.2 1210.18 208C1214.58 210.6 1219.48 211.9 1224.88 211.9C1229.88 211.9 1233.68 210.6 1236.28 208C1238.88 205.4 1240.18 201.9 1240.18 197.5C1240.18 189.7 1237.88 182.2 1233.28 175C1228.68 167.6 1221.18 157.9 1210.78 145.9C1200.58 135.3 1193.08 126.1 1188.28 118.3C1183.48 110.3 1181.08 101.5 1181.08 91.9ZM1436.96 187C1438.36 193.2 1439.76 197.9 1441.16 201.1C1442.76 204.1 1444.46 206.2 1446.26 207.4C1448.26 208.6 1451.16 209.8 1454.96 211V214H1389.26V211C1394.86 209.8 1398.66 208.6 1400.66 207.4C1402.66 206 1403.66 203.6 1403.66 200.2C1403.66 198.4 1402.96 194 1401.56 187L1395.26 157.3H1345.16L1338.56 187C1337.36 192.6 1336.76 196.9 1336.76 199.9C1336.76 203.5 1337.66 206 1339.46 207.4C1341.46 208.6 1345.26 209.8 1350.86 211V214H1314.26V211C1318.26 209.8 1321.16 208.6 1322.96 207.4C1324.96 206.2 1326.66 204.1 1328.06 201.1C1329.66 197.9 1331.06 193.2 1332.26 187L1367.06 25L1364.36 13V10C1371.76 10 1377.76 9.39999 1382.36 8.19999C1387.16 6.99999 1391.06 4.29999 1394.06 0.0999823H1397.06L1436.96 187ZM1370.36 41.2L1346.36 151.3H1394.06L1370.36 41.2ZM1496.35 217.9H1485.85L1442.35 90.1C1440.35 84.1 1438.35 79.7 1436.35 76.9C1434.55 73.9 1432.55 71.8 1430.35 70.6C1428.15 69.4 1425.05 68.2 1421.05 67V64H1490.05V67C1485.25 68 1481.95 69 1480.15 70C1478.35 71 1477.45 72.7 1477.45 75.1C1477.45 77.9 1478.75 82.8 1481.35 89.8L1506.25 159.4L1529.05 90.1C1529.25 89.3 1529.85 87.2 1530.85 83.8C1532.05 80.2 1532.65 77.4 1532.65 75.4C1532.65 73 1531.75 71.3 1529.95 70.3C1528.15 69.1 1524.75 68 1519.75 67V64H1556.35V67C1552.35 68.2 1549.25 69.4 1547.05 70.6C1545.05 71.8 1543.15 73.9 1541.35 76.9C1539.55 79.9 1537.75 84.4 1535.95 90.4L1496.35 217.9ZM1651.82 159.4C1647.02 180.6 1640.42 195.7 1632.02 204.7C1623.82 213.5 1613.32 217.9 1600.52 217.9C1582.52 217.9 1568.42 211.2 1558.22 197.8C1548.22 184.4 1543.22 165.6 1543.22 141.4C1543.22 125 1546.02 110.7 1551.62 98.5C1557.22 86.1 1564.62 76.6 1573.82 70C1583.02 63.4 1593.02 60.1 1603.82 60.1C1617.82 60.1 1628.52 65.1 1635.92 75.1C1643.52 84.9 1647.32 100.1 1647.32 120.7H1583.12V126.4C1583.12 177.4 1593.12 202.9 1613.12 202.9C1627.72 202.9 1638.72 188 1646.12 158.2L1651.82 159.4ZM1602.62 66.1C1596.22 66.1 1591.52 69.8 1588.52 77.2C1585.52 84.4 1583.72 96.9 1583.12 114.7H1617.32C1617.32 96.5 1616.12 83.9 1613.72 76.9C1611.52 69.7 1607.82 66.1 1602.62 66.1Z" fill="white"/>
<path d="M8.1 37.9C22.3 36.7 33.5 32.9 41.7 26.5C50.1 19.9 56.3 11.1 60.3 0.0999823H63.3V186.4C63.3 193 63.6 197.8 64.2 200.8C65 203.8 66.2 206 67.8 207.4C69.4 208.6 72 209.8 75.6 211V214H17.1V211C20.9 210 23.6 208.8 25.2 207.4C26.8 206 27.9 203.8 28.5 200.8C29.1 197.8 29.4 193 29.4 186.4V66.4C29.4 58.4 27.9 52.7 24.9 49.3C21.9 45.7 16.3 43.9 8.1 43.9V37.9ZM148.631 217.9C129.831 217.9 114.531 209.2 102.731 191.8C90.9313 174.4 85.0313 146.8 85.0313 109C85.0313 71.2 90.9313 43.6 102.731 26.2C114.531 8.79998 129.831 0.0999823 148.631 0.0999823C167.631 0.0999823 182.931 8.79998 194.531 26.2C206.331 43.6 212.231 71.2 212.231 109C212.231 147 206.331 174.7 194.531 192.1C182.931 209.3 167.631 217.9 148.631 217.9ZM148.631 211.9C154.831 211.9 159.631 208.7 163.031 202.3C166.431 195.9 168.831 185.4 170.231 170.8C171.631 156.2 172.331 135.6 172.331 109C172.331 82.4 171.631 61.8 170.231 47.2C168.831 32.6 166.431 22.1 163.031 15.7C159.631 9.29999 154.831 6.09999 148.631 6.09999C142.431 6.09999 137.631 9.29999 134.231 15.7C130.831 22.1 128.431 32.7 127.031 47.5C125.631 62.1 124.931 82.6 124.931 109C124.931 135.8 125.531 156.5 126.731 171.1C128.131 185.5 130.531 195.9 133.931 202.3C137.331 208.7 142.231 211.9 148.631 211.9ZM278.644 81.4C279.844 81.2 281.544 81.1 283.744 81.1C293.344 81.1 302.044 83.7 309.844 88.9C317.844 93.9 324.044 101.2 328.444 110.8C333.044 120.2 335.344 131.4 335.344 144.4C335.344 162 332.044 176.3 325.444 187.3C319.044 198.1 310.844 205.9 300.844 210.7C290.844 215.5 280.144 217.9 268.744 217.9C262.344 217.9 255.644 217.2 248.644 215.8C240.644 214.6 234.044 214 228.844 214L221.344 142.6H227.344C232.944 169 238.944 187.2 245.344 197.2C251.744 207 259.244 211.9 267.844 211.9C276.844 211.9 283.644 206 288.244 194.2C293.044 182.4 295.444 165.6 295.444 143.8C295.444 128.2 293.344 115.5 289.144 105.7C284.944 95.9 278.744 91 270.544 91C266.144 91 262.144 92.1 258.544 94.3C254.944 96.5 250.544 100.1 245.344 105.1L241.444 100.3C256.044 84.5 266.544 71.2 272.944 60.4C279.344 49.6 282.544 38.3 282.544 26.5C282.544 12.9 278.144 6.09999 269.344 6.09999C261.944 6.09999 255.144 11 248.944 20.8C242.944 30.4 237.044 47.8 231.244 73H225.244L232.744 3.99999C239.344 3.99999 246.444 3.29999 254.044 1.89999C262.844 0.699986 269.944 0.0999823 275.344 0.0999823C287.544 0.0999823 298.044 2.99999 306.844 8.8C315.844 14.4 320.344 22.9 320.344 34.3C320.344 54.3 306.444 70 278.644 81.4ZM347.25 142V136H424.35V142H347.25ZM442.465 142.6C446.465 161 450.365 175.2 454.165 185.2C457.965 195.2 461.865 202.2 465.865 206.2C469.865 210 474.565 211.9 479.965 211.9C489.165 211.9 496.065 206.1 500.665 194.5C505.265 182.9 507.565 162.5 507.565 133.3C507.565 110.7 505.465 94 501.265 83.2C497.265 72.4 491.165 67 482.965 67C476.965 67 471.065 69.8 465.265 75.4C459.665 80.8 453.465 89.6 446.665 101.8H440.665L453.865 3.99999H535.165V31.9H455.965L450.565 73C452.765 73 456.365 71.6 461.365 68.8C466.765 66 471.565 63.9 475.765 62.5C479.965 60.9 484.965 60.1 490.765 60.1C500.765 60.1 510.065 63 518.665 68.8C527.465 74.4 534.465 82.8 539.665 94C544.865 105.2 547.465 118.5 547.465 133.9C547.465 153.7 544.165 169.9 537.565 182.5C530.965 195.1 522.565 204.2 512.365 209.8C502.365 215.2 491.965 217.9 481.165 217.9C476.965 217.9 471.065 217.3 463.465 216.1C456.865 214.7 450.365 214 443.965 214L436.465 142.6H442.465ZM550.268 37.9C564.468 36.7 575.668 32.9 583.868 26.5C592.268 19.9 598.468 11.1 602.468 0.0999823H605.468V186.4C605.468 193 605.768 197.8 606.368 200.8C607.168 203.8 608.368 206 609.968 207.4C611.568 208.6 614.168 209.8 617.768 211V214H559.268V211C563.068 210 565.768 208.8 567.368 207.4C568.968 206 570.068 203.8 570.668 200.8C571.268 197.8 571.568 193 571.568 186.4V66.4C571.568 58.4 570.068 52.7 567.068 49.3C564.068 45.7 558.468 43.9 550.268 43.9V37.9ZM799.411 75.4H793.411C789.611 55.8 786.011 41.4 782.611 32.2C779.411 23 775.811 17 771.811 14.2C768.011 11.4 762.711 10 755.911 10H749.011V186.4C749.011 193 749.311 197.8 749.911 200.8C750.511 203.8 751.611 206 753.211 207.4C754.811 208.8 757.511 210 761.311 211V214H702.811V211C706.611 210 709.311 208.8 710.911 207.4C712.511 206 713.611 203.8 714.211 200.8C714.811 197.8 715.111 193 715.111 186.4V10H707.911C701.111 10 695.711 11.4 691.711 14.2C687.911 17 684.311 23 680.911 32.2C677.711 41.4 674.311 55.8 670.711 75.4H664.711L672.211 3.99999H791.611L799.411 75.4ZM828.185 40C822.385 40 817.585 38.2 813.785 34.6C809.985 30.8 808.085 26.1 808.085 20.5C808.085 14.9 809.985 10.3 813.785 6.69999C817.585 2.89999 822.385 0.999989 828.185 0.999989C833.785 0.999989 838.485 2.89999 842.285 6.69999C846.085 10.3 847.985 14.9 847.985 20.5C847.985 26.1 846.085 30.8 842.285 34.6C838.485 38.2 833.785 40 828.185 40ZM812.585 97.6C812.585 91 812.285 86.2 811.685 83.2C811.085 80.2 809.985 78 808.385 76.6C806.785 75.2 804.085 74 800.285 73V70H816.785C822.785 70 827.785 69.4 831.785 68.2C835.785 66.8 839.685 64.1 843.485 60.1H846.485V186.4C846.485 193 846.785 197.8 847.385 200.8C847.985 203.8 849.085 206 850.685 207.4C852.285 208.8 854.985 210 858.785 211V214H800.285V211C804.085 210 806.785 208.8 808.385 207.4C809.985 206 811.085 203.8 811.685 200.8C812.285 197.8 812.585 193 812.585 186.4V97.6ZM1049.98 186.4C1049.98 193 1050.28 197.8 1050.88 200.8C1051.48 203.8 1052.58 206 1054.18 207.4C1055.78 208.8 1058.48 210 1062.28 211V214H1003.78V211C1007.58 210 1010.28 208.8 1011.88 207.4C1013.48 206 1014.58 203.8 1015.18 200.8C1015.78 197.8 1016.08 193 1016.08 186.4V104.2C1016.08 92.8 1015.28 84.9 1013.68 80.5C1012.28 75.9 1009.58 73.6 1005.58 73.6C1001.78 73.6 997.984 75.3 994.184 78.7C990.584 82.1 986.084 88 980.684 96.4C980.884 97.8 980.984 100.1 980.984 103.3V186.4C980.984 193 981.284 197.8 981.884 200.8C982.484 203.8 983.584 206 985.184 207.4C986.784 208.8 989.484 210 993.284 211V214H934.784V211C938.584 210 941.284 208.8 942.884 207.4C944.484 206 945.584 203.8 946.184 200.8C946.784 197.8 947.084 193 947.084 186.4V104.2C947.084 92.8 946.284 84.9 944.684 80.5C943.284 75.9 940.584 73.6 936.584 73.6C932.784 73.6 928.884 75.4 924.884 79C921.084 82.6 916.584 88.7 911.384 97.3V186.4C911.384 193 911.684 197.8 912.284 200.8C912.884 203.8 913.984 206 915.584 207.4C917.184 208.8 919.884 210 923.684 211V214H865.184V211C868.984 210 871.684 208.8 873.284 207.4C874.884 206 875.984 203.8 876.584 200.8C877.184 197.8 877.484 193 877.484 186.4V97.6C877.484 91 877.184 86.2 876.584 83.2C875.984 80.2 874.884 78 873.284 76.6C871.684 75.2 868.984 74 865.184 73V70H881.684C887.684 70 892.684 69.4 896.684 68.2C900.684 66.8 904.584 64.1 908.384 60.1H911.384V88.3C916.584 79.5 922.084 72.6 927.884 67.6C933.884 62.6 940.984 60.1 949.184 60.1C957.384 60.1 964.084 62.5 969.284 67.3C974.484 72.1 977.984 79.2 979.784 88.6C985.584 79.4 991.484 72.4 997.484 67.6C1003.48 62.6 1010.38 60.1 1018.18 60.1C1028.38 60.1 1036.18 63.8 1041.58 71.2C1047.18 78.4 1049.98 89.1 1049.98 103.3V186.4ZM1173.81 159.4C1169.01 180.6 1162.41 195.7 1154.01 204.7C1145.81 213.5 1135.31 217.9 1122.51 217.9C1104.51 217.9 1090.41 211.2 1080.21 197.8C1070.21 184.4 1065.21 165.6 1065.21 141.4C1065.21 125 1068.01 110.7 1073.61 98.5C1079.21 86.1 1086.61 76.6 1095.81 70C1105.01 63.4 1115.01 60.1 1125.81 60.1C1139.81 60.1 1150.51 65.1 1157.91 75.1C1165.51 84.9 1169.31 100.1 1169.31 120.7H1105.11V126.4C1105.11 177.4 1115.11 202.9 1135.11 202.9C1149.71 202.9 1160.71 188 1168.11 158.2L1173.81 159.4ZM1124.61 66.1C1118.21 66.1 1113.51 69.8 1110.51 77.2C1107.51 84.4 1105.71 96.9 1105.11 114.7H1139.31C1139.31 96.5 1138.11 83.9 1135.71 76.9C1133.51 69.7 1129.81 66.1 1124.61 66.1ZM1181.08 91.9C1181.08 81.1 1184.88 73.1 1192.48 67.9C1200.28 62.7 1210.28 60.1 1222.48 60.1C1226.68 60.1 1230.78 60.4 1234.78 61C1238.78 61.6 1241.28 62 1242.28 62.2C1249.48 63.4 1255.08 64 1259.08 64L1266.58 115.9H1260.58C1255.98 96.3 1250.88 83.1 1245.28 76.3C1239.88 69.5 1233.48 66.1 1226.08 66.1C1221.48 66.1 1217.98 67.2 1215.58 69.4C1213.18 71.6 1211.98 74.6 1211.98 78.4C1211.98 89 1221.78 104.6 1241.38 125.2C1251.38 137 1258.78 147 1263.58 155.2C1268.38 163.2 1270.78 172.3 1270.78 182.5C1270.78 206.1 1255.88 217.9 1226.08 217.9C1220.88 217.9 1212.68 217.2 1201.48 215.8C1193.88 214.6 1188.48 214 1185.28 214L1178.38 157H1184.38C1188.58 172.2 1192.88 183.8 1197.28 191.8C1201.68 199.8 1205.98 205.2 1210.18 208C1214.58 210.6 1219.48 211.9 1224.88 211.9C1229.88 211.9 1233.68 210.6 1236.28 208C1238.88 205.4 1240.18 201.9 1240.18 197.5C1240.18 189.7 1237.88 182.2 1233.28 175C1228.68 167.6 1221.18 157.9 1210.78 145.9C1200.58 135.3 1193.08 126.1 1188.28 118.3C1183.48 110.3 1181.08 101.5 1181.08 91.9ZM1436.96 187C1438.36 193.2 1439.76 197.9 1441.16 201.1C1442.76 204.1 1444.46 206.2 1446.26 207.4C1448.26 208.6 1451.16 209.8 1454.96 211V214H1389.26V211C1394.86 209.8 1398.66 208.6 1400.66 207.4C1402.66 206 1403.66 203.6 1403.66 200.2C1403.66 198.4 1402.96 194 1401.56 187L1395.26 157.3H1345.16L1338.56 187C1337.36 192.6 1336.76 196.9 1336.76 199.9C1336.76 203.5 1337.66 206 1339.46 207.4C1341.46 208.6 1345.26 209.8 1350.86 211V214H1314.26V211C1318.26 209.8 1321.16 208.6 1322.96 207.4C1324.96 206.2 1326.66 204.1 1328.06 201.1C1329.66 197.9 1331.06 193.2 1332.26 187L1367.06 25L1364.36 13V10C1371.76 10 1377.76 9.39999 1382.36 8.19999C1387.16 6.99999 1391.06 4.29999 1394.06 0.0999823H1397.06L1436.96 187ZM1370.36 41.2L1346.36 151.3H1394.06L1370.36 41.2ZM1496.35 217.9H1485.85L1442.35 90.1C1440.35 84.1 1438.35 79.7 1436.35 76.9C1434.55 73.9 1432.55 71.8 1430.35 70.6C1428.15 69.4 1425.05 68.2 1421.05 67V64H1490.05V67C1485.25 68 1481.95 69 1480.15 70C1478.35 71 1477.45 72.7 1477.45 75.1C1477.45 77.9 1478.75 82.8 1481.35 89.8L1506.25 159.4L1529.05 90.1C1529.25 89.3 1529.85 87.2 1530.85 83.8C1532.05 80.2 1532.65 77.4 1532.65 75.4C1532.65 73 1531.75 71.3 1529.95 70.3C1528.15 69.1 1524.75 68 1519.75 67V64H1556.35V67C1552.35 68.2 1549.25 69.4 1547.05 70.6C1545.05 71.8 1543.15 73.9 1541.35 76.9C1539.55 79.9 1537.75 84.4 1535.95 90.4L1496.35 217.9ZM1651.82 159.4C1647.02 180.6 1640.42 195.7 1632.02 204.7C1623.82 213.5 1613.32 217.9 1600.52 217.9C1582.52 217.9 1568.42 211.2 1558.22 197.8C1548.22 184.4 1543.22 165.6 1543.22 141.4C1543.22 125 1546.02 110.7 1551.62 98.5C1557.22 86.1 1564.62 76.6 1573.82 70C1583.02 63.4 1593.02 60.1 1603.82 60.1C1617.82 60.1 1628.52 65.1 1635.92 75.1C1643.52 84.9 1647.32 100.1 1647.32 120.7H1583.12V126.4C1583.12 177.4 1593.12 202.9 1613.12 202.9C1627.72 202.9 1638.72 188 1646.12 158.2L1651.82 159.4ZM1602.62 66.1C1596.22 66.1 1591.52 69.8 1588.52 77.2C1585.52 84.4 1583.72 96.9 1583.12 114.7H1617.32C1617.32 96.5 1616.12 83.9 1613.72 76.9C1611.52 69.7 1607.82 66.1 1602.62 66.1Z" fill="white"/>
<path d="M599.713 338H592.609V298.32H577.825V292.24H614.497V298.32H599.713V338ZM639.09 338V292.24H646.13V311.376H668.594V292.24H675.698V338H668.594V317.456H646.13V338H639.09ZM723.594 338.896C719.114 338.896 715.189 337.872 711.818 335.824C708.448 333.776 705.824 330.96 703.946 327.376C702.112 323.749 701.194 319.653 701.194 315.088C701.194 310.523 702.112 306.448 703.946 302.864C705.824 299.237 708.448 296.421 711.818 294.416C715.189 292.368 719.114 291.344 723.594 291.344C728.074 291.344 732 292.368 735.37 294.416C738.784 296.421 741.408 299.237 743.242 302.864C745.12 306.448 746.058 310.523 746.058 315.088C746.058 319.653 745.12 323.749 743.242 327.376C741.408 330.96 738.784 333.776 735.37 335.824C732 337.872 728.074 338.896 723.594 338.896ZM723.594 332.816C728.672 332.816 732.469 331.152 734.986 327.824C737.504 324.453 738.762 320.208 738.762 315.088C738.762 309.968 737.504 305.744 734.986 302.416C732.469 299.088 728.672 297.424 723.594 297.424C718.517 297.424 714.72 299.088 712.202 302.416C709.728 305.744 708.49 309.968 708.49 315.088C708.49 320.208 709.728 324.453 712.202 327.824C714.72 331.152 718.517 332.816 723.594 332.816ZM771.552 338V292.24H790.624C795.659 292.24 799.499 293.392 802.144 295.696C804.832 297.957 806.176 301.2 806.176 305.424C806.176 308.283 805.387 310.715 803.808 312.72C802.272 314.725 800.224 316.027 797.664 316.624V316.752C799.84 317.179 801.483 318.224 802.592 319.888C803.744 321.552 804.491 323.387 804.832 325.392C805.216 327.397 805.494 329.744 805.664 332.432C805.792 334.181 805.92 335.44 806.048 336.208C806.176 336.976 806.432 337.424 806.816 337.552V338H799.264C798.966 337.744 798.774 337.296 798.688 336.656C798.646 335.973 798.603 334.864 798.56 333.328C798.518 330.768 798.326 328.592 797.984 326.8C797.686 325.008 796.939 323.451 795.744 322.128C794.592 320.763 792.8 320.08 790.368 320.08H778.592V338H771.552ZM778.592 298.32V314H789.088C792.331 314 794.806 313.317 796.512 311.952C798.219 310.544 799.072 308.539 799.072 305.936C799.072 303.419 798.283 301.52 796.704 300.24C795.168 298.96 792.672 298.32 789.216 298.32H778.592ZM839.917 338H832.877V292.24H840.941L862.189 327.44H862.317V292.24H869.421V338H861.357L840.045 302.8H839.917V338ZM896.827 338V292.24H903.867V311.376H926.331V292.24H933.435V338H926.331V317.456H903.867V338H896.827ZM960.84 338V292.24H967.88V338H960.84ZM995.29 338V292.24H1002.33V331.92H1025.5V338H995.29ZM1050.05 338V292.24H1057.09V331.92H1080.26V338H1050.05Z" fill="white"/>
</svg>
